<svg xmlns="http://www.w3.org/2000/svg" xmlns:xlink="http://www.w3.org/1999/xlink" width="88" zoomAndPan="magnify" viewBox="0 0 66 32.999998" height="44" preserveAspectRatio="xMidYMid meet" version="1.0"><defs><g/></defs><g fill="#ffffff" fill-opacity="1"><g transform="translate(0.00139053, 20.327157)"><g><path d="M 4.046875 -7.546875 C 5.015625 -7.546875 5.769531 -7.316406 6.3125 -6.859375 C 6.863281 -6.398438 7.140625 -5.765625 7.140625 -4.953125 C 7.140625 -4.148438 6.863281 -3.519531 6.3125 -3.0625 C 5.769531 -2.601562 5.015625 -2.375 4.046875 -2.375 L 2.03125 -2.375 L 2.03125 0 L 1.234375 0 L 1.234375 -7.546875 Z M 4.03125 -3.078125 C 4.78125 -3.078125 5.351562 -3.238281 5.75 -3.5625 C 6.144531 -3.894531 6.34375 -4.359375 6.34375 -4.953125 C 6.34375 -5.566406 6.144531 -6.035156 5.75 -6.359375 C 5.351562 -6.691406 4.78125 -6.859375 4.03125 -6.859375 L 2.03125 -6.859375 L 2.03125 -3.078125 Z M 4.03125 -3.078125 "/></g></g></g><g fill="#ffffff" fill-opacity="1"><g transform="translate(7.742821, 20.327157)"><g><path d="M 5.96875 -2.015625 L 1.75 -2.015625 L 0.859375 0 L 0.015625 0 L 3.46875 -7.546875 L 4.265625 -7.546875 L 7.703125 0 L 6.875 0 Z M 5.671875 -2.65625 L 3.859375 -6.71875 L 2.046875 -2.65625 Z M 5.671875 -2.65625 "/></g></g></g><g fill="#ffffff" fill-opacity="1"><g transform="translate(15.473469, 20.327157)"><g><path d="M 4.5 0.0625 C 3.757812 0.0625 3.085938 -0.0976562 2.484375 -0.421875 C 1.878906 -0.753906 1.40625 -1.210938 1.0625 -1.796875 C 0.726562 -2.390625 0.5625 -3.050781 0.5625 -3.78125 C 0.5625 -4.5 0.726562 -5.148438 1.0625 -5.734375 C 1.40625 -6.328125 1.878906 -6.785156 2.484375 -7.109375 C 3.085938 -7.441406 3.765625 -7.609375 4.515625 -7.609375 C 5.078125 -7.609375 5.59375 -7.515625 6.0625 -7.328125 C 6.539062 -7.140625 6.945312 -6.867188 7.28125 -6.515625 L 6.765625 -6 C 6.179688 -6.601562 5.4375 -6.90625 4.53125 -6.90625 C 3.9375 -6.90625 3.394531 -6.765625 2.90625 -6.484375 C 2.414062 -6.210938 2.03125 -5.835938 1.75 -5.359375 C 1.476562 -4.890625 1.34375 -4.363281 1.34375 -3.78125 C 1.34375 -3.1875 1.476562 -2.648438 1.75 -2.171875 C 2.03125 -1.703125 2.414062 -1.328125 2.90625 -1.046875 C 3.394531 -0.773438 3.9375 -0.640625 4.53125 -0.640625 C 5.4375 -0.640625 6.179688 -0.941406 6.765625 -1.546875 L 7.28125 -1.046875 C 6.945312 -0.679688 6.539062 -0.40625 6.0625 -0.21875 C 5.582031 -0.03125 5.0625 0.0625 4.5 0.0625 Z M 4.5 0.0625 "/></g></g></g><g fill="#ffffff" fill-opacity="1"><g transform="translate(23.225682, 20.327157)"><g><path d="M 7.53125 -7.546875 L 7.53125 0 L 6.75 0 L 6.75 -3.484375 L 2.03125 -3.484375 L 2.03125 0 L 1.234375 0 L 1.234375 -7.546875 L 2.03125 -7.546875 L 2.03125 -4.1875 L 6.75 -4.1875 L 6.75 -7.546875 Z M 7.53125 -7.546875 "/></g></g></g><g fill="#ffffff" fill-opacity="1"><g transform="translate(31.991398, 20.327157)"><g><path d="M 5.96875 -2.015625 L 1.75 -2.015625 L 0.859375 0 L 0.015625 0 L 3.46875 -7.546875 L 4.265625 -7.546875 L 7.703125 0 L 6.875 0 Z M 5.671875 -2.65625 L 3.859375 -6.71875 L 2.046875 -2.65625 Z M 5.671875 -2.65625 "/></g></g></g><g fill="#ffffff" fill-opacity="1"><g transform="translate(39.722046, 20.327157)"><g><path d="M 9.0625 -7.546875 L 9.0625 0 L 8.296875 0 L 8.296875 -6.03125 L 5.34375 -0.953125 L 4.953125 -0.953125 L 2 -6 L 2 0 L 1.234375 0 L 1.234375 -7.546875 L 1.890625 -7.546875 L 5.171875 -1.953125 L 8.40625 -7.546875 Z M 9.0625 -7.546875 "/></g></g></g><g fill="#ffffff" fill-opacity="1"><g transform="translate(50.018795, 20.327157)"><g><path d="M 6.5625 -0.6875 L 6.5625 0 L 1.234375 0 L 1.234375 -7.546875 L 6.40625 -7.546875 L 6.40625 -6.859375 L 2.03125 -6.859375 L 2.03125 -4.171875 L 5.9375 -4.171875 L 5.9375 -3.5 L 2.03125 -3.5 L 2.03125 -0.6875 Z M 6.5625 -0.6875 "/></g></g></g><g fill="#ffffff" fill-opacity="1"><g transform="translate(57.231912, 20.327157)"><g><path d="M 7.53125 -7.546875 L 7.53125 0 L 6.875 0 L 2.03125 -6.125 L 2.03125 0 L 1.234375 0 L 1.234375 -7.546875 L 1.890625 -7.546875 L 6.75 -1.421875 L 6.75 -7.546875 Z M 7.53125 -7.546875 "/></g></g></g></svg>